<svg width="48" height="48" viewBox="0 0 48 48" fill="none" xmlns="http://www.w3.org/2000/svg">
<path d="M21 22.5H22V23.5H21V22.5Z" fill="black"/>
<path d="M22 23.5H23V24.5H22V23.5Z" fill="black"/>
<path d="M22 26.5H23V27.5H22V26.5Z" fill="black"/>
<path d="M18 26.5H19V27.5H18V26.5Z" fill="black"/>
<path d="M14 25.5H15V26.5H14V25.5Z" fill="black"/>
<path d="M14 24.5H15V25.5H14V24.5Z" fill="black"/>
<path d="M14 23.5H15V24.5H14V23.5Z" fill="black"/>
<path d="M14 22.5H15V23.5H14V22.5Z" fill="black"/>
<path d="M14 21.5H15V22.5H14V21.5Z" fill="black"/>
<path d="M14 20.5H15V21.5H14V20.5Z" fill="black"/>
<path d="M14 19.5H15V20.5H14V19.5Z" fill="black"/>
<path d="M14 18.5H15V19.5H14V18.5Z" fill="black"/>
<path d="M14 17.5H15V18.5H14V17.5Z" fill="black"/>
<path d="M14 16.5H15V17.5H14V16.5Z" fill="black"/>
<path d="M14 15.5H15V16.5H14V15.5Z" fill="black"/>
<path d="M14 14.5H15V15.5H14V14.5Z" fill="black"/>
<path d="M14 13.5H15V14.5H14V13.5Z" fill="black"/>
<path d="M14 12.5H15V13.5H14V12.5Z" fill="black"/>
<path d="M15 11.5H16V12.5H15V11.5Z" fill="black"/>
<path d="M17 11.5H18V12.5H17V11.5Z" fill="black"/>
<path d="M18 11.5H19V12.5H18V11.5Z" fill="black"/>
<path d="M19 11.5H20V12.5H19V11.5Z" fill="black"/>
<path d="M20 11.5H21V12.5H20V11.5Z" fill="black"/>
<path d="M21 11.5H22V12.5H21V11.5Z" fill="black"/>
<path d="M16 11.5H17V12.5H16V11.5Z" fill="black"/>
<path d="M26 26.5H27V27.5H26V26.5Z" fill="black"/>
<path d="M30 26.5H31V27.5H30V26.5Z" fill="black"/>
<path d="M22 11.5H23V12.5H22V11.5Z" fill="black"/>
<path d="M23 23.5H24V24.5H23V23.5Z" fill="black"/>
<path d="M23 26.5H24V27.5H23V26.5Z" fill="black"/>
<path d="M19 26.5H20V27.5H19V26.5Z" fill="black"/>
<path d="M15 26.5H16V27.5H15V26.5Z" fill="black"/>
<path d="M27 26.5H28V27.5H27V26.5Z" fill="black"/>
<path d="M31 26.5H32V27.5H31V26.5Z" fill="black"/>
<path d="M23 11.5H24V12.5H23V11.5Z" fill="black"/>
<path d="M24 23.5H25V24.5H24V23.5Z" fill="black"/>
<path d="M24 26.5H25V27.5H24V26.5Z" fill="black"/>
<path d="M20 26.5H21V27.5H20V26.5Z" fill="black"/>
<path d="M16 26.5H17V27.5H16V26.5Z" fill="black"/>
<path d="M28 26.5H29V27.5H28V26.5Z" fill="black"/>
<path d="M32 26.5H33V27.5H32V26.5Z" fill="black"/>
<path d="M24 11.5H25V12.5H24V11.5Z" fill="black"/>
<path d="M25 23.5H26V24.5H25V23.5Z" fill="black"/>
<path d="M25 26.5H26V27.5H25V26.5Z" fill="black"/>
<path d="M21 26.5H22V27.5H21V26.5Z" fill="black"/>
<path d="M17 26.5H18V27.5H17V26.5Z" fill="black"/>
<path d="M29 26.5H30V27.5H29V26.5Z" fill="black"/>
<path d="M33 25.5H34V26.5H33V25.5Z" fill="black"/>
<path d="M33 24.5H34V25.5H33V24.5Z" fill="black"/>
<path d="M33 23.5H34V24.5H33V23.5Z" fill="black"/>
<path d="M33 22.5H34V23.5H33V22.5Z" fill="black"/>
<path d="M33 21.5H34V22.5H33V21.5Z" fill="black"/>
<path d="M33 20.5H34V21.5H33V20.5Z" fill="black"/>
<path d="M33 19.5H34V20.5H33V19.5Z" fill="black"/>
<path d="M33 18.5H34V19.5H33V18.5Z" fill="black"/>
<path d="M33 17.5H34V18.5H33V17.5Z" fill="black"/>
<path d="M33 16.5H34V17.5H33V16.5Z" fill="black"/>
<path d="M33 15.5H34V16.5H33V15.5Z" fill="black"/>
<path d="M33 14.5H34V15.5H33V14.5Z" fill="black"/>
<path d="M33 13.5H34V14.5H33V13.5Z" fill="black"/>
<path d="M33 12.5H34V13.5H33V12.5Z" fill="black"/>
<path d="M32 11.5H33V12.5H32V11.5Z" fill="black"/>
<path d="M33 8.5H34V9.5H33V8.5Z" fill="black"/>
<path d="M15 8.5H14V9.5H15V8.5Z" fill="black"/>
<path d="M16 8.5H15V9.5H16V8.5Z" fill="black"/>
<path d="M17 8.5H16V9.5H17V8.5Z" fill="black"/>
<path d="M18 8.5H17V9.5H18V8.5Z" fill="black"/>
<path d="M19 8.5H18V9.5H19V8.5Z" fill="black"/>
<path d="M20 8.5H19V9.5H20V8.5Z" fill="black"/>
<path d="M21 8.5H20V9.5H21V8.5Z" fill="black"/>
<path d="M22 8.5H21V9.5H22V8.5Z" fill="black"/>
<path d="M23 8.5H22V9.5H23V8.5Z" fill="black"/>
<path d="M24 8.5H23V9.5H24V8.5Z" fill="black"/>
<path d="M25 8.5H24V9.5H25V8.5Z" fill="black"/>
<path d="M26 8.5H25V9.5H26V8.5Z" fill="black"/>
<path d="M27 8.5H26V9.5H27V8.5Z" fill="black"/>
<path d="M28 8.5H27V9.5H28V8.5Z" fill="black"/>
<path d="M29 8.5H28V9.5H29V8.5Z" fill="black"/>
<path d="M30 8.5H29V9.5H30V8.5Z" fill="black"/>
<path d="M31 8.5H30V9.5H31V8.5Z" fill="black"/>
<path d="M32 8.5H31V9.5H32V8.5Z" fill="black"/>
<path d="M33 8.5H32V9.5H33V8.5Z" fill="black"/>
<path d="M34 8.5H35V9.5H34V8.5Z" fill="black"/>
<path d="M14 8.5H13V9.5H14V8.5Z" fill="black"/>
<path d="M35 9.5H36V10.5H35V9.5Z" fill="black"/>
<path d="M13 9.5H12V10.5H13V9.5Z" fill="black"/>
<path d="M36 10.5H37V11.5H36V10.5Z" fill="black"/>
<path d="M12 10.5H11V11.5H12V10.5Z" fill="black"/>
<path d="M36 11.5H37V12.5H36V11.5Z" fill="black"/>
<path d="M12 11.5H11V12.5H12V11.5Z" fill="black"/>
<path d="M12 12.5H11V13.5H12V12.5Z" fill="black"/>
<path d="M37 12.5H36V13.5H37V12.5Z" fill="black"/>
<path d="M12 13.5H11V14.5H12V13.5Z" fill="black"/>
<path d="M37 13.5H36V14.5H37V13.5Z" fill="black"/>
<path d="M12 14.5H11V15.5H12V14.5Z" fill="black"/>
<path d="M37 14.5H36V15.5H37V14.5Z" fill="black"/>
<path d="M12 15.5H11V16.5H12V15.5Z" fill="black"/>
<path d="M37 15.5H36V16.5H37V15.5Z" fill="black"/>
<path d="M12 16.5H11V17.5H12V16.5Z" fill="black"/>
<path d="M37 16.5H36V17.5H37V16.5Z" fill="black"/>
<path d="M12 17.5H11V18.5H12V17.5Z" fill="black"/>
<path d="M37 17.5H36V18.5H37V17.5Z" fill="black"/>
<path d="M12 18.5H11V19.5H12V18.5Z" fill="black"/>
<path d="M37 18.5H36V19.5H37V18.5Z" fill="black"/>
<path d="M12 19.5H11V20.5H12V19.5Z" fill="black"/>
<path d="M37 19.5H36V20.5H37V19.5Z" fill="black"/>
<path d="M12 20.5H11V21.5H12V20.5Z" fill="black"/>
<path d="M37 20.5H36V21.5H37V20.5Z" fill="black"/>
<path d="M12 21.5H11V22.5H12V21.5Z" fill="black"/>
<path d="M37 21.5H36V22.5H37V21.5Z" fill="black"/>
<path d="M12 22.5H11V23.5H12V22.5Z" fill="black"/>
<path d="M37 22.5H36V23.5H37V22.5Z" fill="black"/>
<path d="M12 23.5H11V24.5H12V23.5Z" fill="black"/>
<path d="M37 23.5H36V24.5H37V23.5Z" fill="black"/>
<path d="M12 24.5H11V25.5H12V24.5Z" fill="black"/>
<path d="M37 24.5H36V25.5H37V24.5Z" fill="black"/>
<path d="M12 25.5H11V26.5H12V25.5Z" fill="black"/>
<path d="M37 25.5H36V26.5H37V25.5Z" fill="black"/>
<path d="M12 26.5H11V27.5H12V26.5Z" fill="black"/>
<path d="M12 27.5H11V28.5H12V27.5Z" fill="black"/>
<path d="M37 27.5H36V28.5H37V27.5Z" fill="black"/>
<path d="M12 28.5H11V29.5H12V28.5Z" fill="black"/>
<path d="M37 28.5H36V29.5H37V28.5Z" fill="black"/>
<path d="M12 29.5H11V30.5H12V29.5Z" fill="black"/>
<path d="M37 29.5H36V30.5H37V29.5Z" fill="black"/>
<path d="M12 30.5H11V31.5H12V30.5Z" fill="black"/>
<path d="M37 30.5H36V31.5H37V30.5Z" fill="black"/>
<path d="M12 31.5H11V32.5H12V31.5Z" fill="black"/>
<path d="M12 32.5H11V33.5H12V32.5Z" fill="black"/>
<path d="M12 33.5H11V34.5H12V33.5Z" fill="black"/>
<path d="M13 34.5H12V35.5H13V34.5Z" fill="black"/>
<path d="M13 35.5H12V36.5H13V35.5Z" fill="black"/>
<path d="M13 36.5H12V37.5H13V36.5Z" fill="black"/>
<path d="M13 37.5H12V38.5H13V37.5Z" fill="black"/>
<path d="M13 38.5H12V39.5H13V38.5Z" fill="black"/>
<path d="M36 38.5H35V39.5H36V38.5Z" fill="black"/>
<path d="M14 38.5H13V39.5H14V38.5Z" fill="black"/>
<path d="M15 38.5H14V39.5H15V38.5Z" fill="black"/>
<path d="M16 38.5H15V39.5H16V38.5Z" fill="black"/>
<path d="M17 38.5H16V39.5H17V38.5Z" fill="black"/>
<path d="M18 38.5H17V39.5H18V38.5Z" fill="black"/>
<path d="M19 38.5H18V39.5H19V38.5Z" fill="black"/>
<path d="M20 38.5H19V39.5H20V38.5Z" fill="black"/>
<path d="M21 38.5H20V39.5H21V38.5Z" fill="black"/>
<path d="M22 38.5H21V39.5H22V38.5Z" fill="black"/>
<path d="M23 38.5H22V39.5H23V38.5Z" fill="black"/>
<path d="M24 38.5H23V39.5H24V38.5Z" fill="black"/>
<path d="M25 38.5H24V39.5H25V38.5Z" fill="black"/>
<path d="M26 38.5H25V39.5H26V38.5Z" fill="black"/>
<path d="M27 38.5H26V39.5H27V38.5Z" fill="black"/>
<path d="M28 38.5H27V39.5H28V38.5Z" fill="black"/>
<path d="M29 38.5H28V39.5H29V38.5Z" fill="black"/>
<path d="M30 38.5H29V39.5H30V38.5Z" fill="black"/>
<path d="M31 38.5H30V39.5H31V38.5Z" fill="black"/>
<path d="M32 38.5H31V39.5H32V38.5Z" fill="black"/>
<path d="M33 38.5H32V39.5H33V38.5Z" fill="black"/>
<path d="M34 38.5H33V39.5H34V38.5Z" fill="black"/>
<path d="M35 38.5H34V39.5H35V38.5Z" fill="black"/>
<path d="M36 37.5H35V38.5H36V37.5Z" fill="black"/>
<path d="M36 36.5H35V37.5H36V36.5Z" fill="black"/>
<path d="M36 35.5H35V36.5H36V35.5Z" fill="black"/>
<path d="M14 34.5H13V35.5H14V34.5Z" fill="black"/>
<path d="M15 34.5H14V35.5H15V34.5Z" fill="black"/>
<path d="M16 34.5H15V35.5H16V34.5Z" fill="black"/>
<path d="M17 34.5H16V35.5H17V34.5Z" fill="black"/>
<path d="M18 34.5H17V35.5H18V34.5Z" fill="black"/>
<path d="M19 34.5H18V35.5H19V34.5Z" fill="black"/>
<path d="M20 34.5H19V35.5H20V34.5Z" fill="black"/>
<path d="M21 34.5H20V35.5H21V34.5Z" fill="black"/>
<path d="M22 34.5H21V35.5H22V34.5Z" fill="black"/>
<path d="M23 34.5H22V35.5H23V34.5Z" fill="black"/>
<path d="M24 34.5H23V35.5H24V34.5Z" fill="black"/>
<path d="M25 34.5H24V35.5H25V34.5Z" fill="black"/>
<path d="M26 34.5H25V35.5H26V34.5Z" fill="black"/>
<path d="M27 34.5H26V35.5H27V34.5Z" fill="black"/>
<path d="M28 34.5H27V35.5H28V34.5Z" fill="black"/>
<path d="M29 34.5H28V35.5H29V34.5Z" fill="black"/>
<path d="M30 34.5H29V35.5H30V34.5Z" fill="black"/>
<path d="M31 34.5H30V35.5H31V34.5Z" fill="black"/>
<path d="M32 34.5H31V35.5H32V34.5Z" fill="black"/>
<path d="M33 34.5H32V35.5H33V34.5Z" fill="black"/>
<path d="M34 34.5H33V35.5H34V34.5Z" fill="black"/>
<path d="M35 34.5H34V35.5H35V34.5Z" fill="black"/>
<path d="M36 34.5H35V35.5H36V34.5Z" fill="black"/>
<path d="M37 31.5H36V32.5H37V31.5Z" fill="black"/>
<path d="M37 32.5H36V33.5H37V32.5Z" fill="black"/>
<path d="M37 33.5H36V34.5H37V33.5Z" fill="black"/>
<path d="M15 31.5H14V32.5H15V31.5Z" fill="black"/>
<path d="M16 31.5H15V32.5H16V31.5Z" fill="black"/>
<path d="M33 31.5H32V32.5H33V31.5Z" fill="black"/>
<path d="M32 31.5H31V32.5H32V31.5Z" fill="black"/>
<path d="M31 31.5H30V32.5H31V31.5Z" fill="black"/>
<path d="M30 31.5H29V32.5H30V31.5Z" fill="black"/>
<path d="M29 31.5H28V32.5H29V31.5Z" fill="black"/>
<path d="M28 31.5H27V32.5H28V31.5Z" fill="black"/>
<path d="M37 26.5H36V27.5H37V26.5Z" fill="black"/>
<path d="M31 11.5H32V12.5H31V11.5Z" fill="black"/>
<path d="M30 11.5H31V12.5H30V11.5Z" fill="black"/>
<path d="M29 11.5H30V12.5H29V11.5Z" fill="black"/>
<path d="M28 11.5H29V12.5H28V11.5Z" fill="black"/>
<path d="M27 11.5H28V12.5H27V11.5Z" fill="black"/>
<path d="M26 11.5H27V12.5H26V11.5Z" fill="black"/>
<path d="M25 11.5H26V12.5H25V11.5Z" fill="black"/>
<path d="M26 22.5H27V23.5H26V22.5Z" fill="black"/>
<path d="M23 20.5H24V21.5H23V20.5Z" fill="black"/>
<path d="M24 20.5H25V21.5H24V20.5Z" fill="black"/>
<path d="M24 19.5H25V20.5H24V19.5Z" fill="black"/>
<path d="M24 18.5H25V19.5H24V18.5Z" fill="black"/>
<path d="M24 17.5H25V18.5H24V17.5Z" fill="black"/>
<path d="M24 16.5H25V17.5H24V16.5Z" fill="black"/>
<path d="M28 16.5H29V17.5H28V16.5Z" fill="black"/>
<path d="M28 17.5H29V18.5H28V17.5Z" fill="black"/>
<path d="M19 16.5H20V17.5H19V16.5Z" fill="black"/>
<path d="M19 17.5H20V18.5H19V17.5Z" fill="black"/>
</svg>
